<?xml version="1.0" encoding="iso-8859-1"?>
<!-- Generator: Adobe Illustrator 19.0.0, SVG Export Plug-In . SVG Version: 6.00 Build 0)  -->
<svg version="1.1" id="Layer_1" xmlns="http://www.w3.org/2000/svg" xmlns:xlink="http://www.w3.org/1999/xlink" x="0px" y="0px"
	 viewBox="0 0 512 512" style="enable-background:new 0 0 512 512;" xml:space="preserve">
<path style="fill:#EC5565;" d="M512,256.006C512,397.402,397.394,512.004,256.004,512C114.606,512.004,0,397.402,0,256.006
	C-0.007,114.61,114.606,0,256.004,0C397.394,0,512,114.614,512,256.006z"/>
<path style="fill:#D94453;" d="M508.507,298.279c-6.452-6.481-204.522-203.796-205.02-204.275
	c-10.867-11.359-26.763-17.151-47.444-17.151c-23.1,0-40.298,7.193-51.104,21.375c-15.513,20.359-12.863,49.198-10.464,62.716
	l-53.269,13.196c-1.283,0.317-2.461,0.969-3.409,1.89c-86.65,84.18-56.221,246.325-54.883,253.185
	c0.372,1.913,48.144,49.884,48.711,50.298c0.138,0.176,0.285,0.345,0.423,0.518c36.727,20.362,78.982,31.969,123.956,31.968
	C382.993,512.003,488.355,419.552,508.507,298.279z"/>
<g>
	<path style="fill:#F4F6F9;" d="M374.221,176.001c-0.947-0.922-2.125-1.574-3.408-1.891l-53.253-13.19
		c2.398-13.515,5.047-42.345-10.461-62.697c-10.802-14.182-27.991-21.37-51.088-21.37h-0.022c-23.093,0-40.286,7.191-51.088,21.37
		c-15.508,20.352-12.859,49.182-10.461,62.697l-53.253,13.19c-1.283,0.317-2.46,0.97-3.408,1.891
		C51.153,260.155,81.572,422.251,82.91,429.11c0.682,3.506,3.754,6.035,7.326,6.035h52.743c2.475,0,4.789-1.225,6.178-3.273
		c1.389-2.048,1.673-4.651,0.758-6.95c-21.813-54.814-4.979-112.24,9.046-145.039v140.334c0,4.123,3.342,7.465,7.465,7.465h179.147
		c4.123,0,7.465-3.342,7.465-7.465V279.884c14.025,32.799,30.86,90.226,9.046,145.039c-0.915,2.3-0.63,4.902,0.758,6.95
		c1.389,2.048,3.703,3.273,6.178,3.273h52.743c3.572,0,6.644-2.529,7.326-6.035C430.427,422.252,460.846,260.155,374.221,176.001z
		 M216.804,107.232c7.833-10.253,21.015-15.45,39.185-15.45h0.022c18.165,0,31.353,5.198,39.185,15.45
		c5.348,6.998,7.804,15.675,8.747,24.142c-8.446-9.215-22.916-17.199-47.942-17.199s-39.497,7.984-47.942,17.199
		C209.001,122.907,211.456,114.231,216.804,107.232z M256,193.917l-44.459-38.108c1.366-7.705,8.394-26.705,44.459-26.705
		c35.996,0,43.07,18.818,44.455,26.708L256,193.917z M415.439,420.218h-35.81c27.86-86.585-25.386-171.955-27.755-175.684
		c-1.778-2.806-5.175-4.085-8.386-3.167c-3.185,0.929-5.379,3.849-5.379,7.169v164.218H173.891V248.535
		c0-3.321-2.194-6.24-5.379-7.169c-3.185-0.915-6.601,0.368-8.386,3.167c-2.369,3.729-55.615,89.1-27.755,175.684h-35.81
		c-4.545-29.756-19.999-161.951,50.199-232.109l58.29-14.437c1.028-0.255,1.958-0.746,2.775-1.383l5.156,4.419
		c-0.459,0.56-0.926,1.117-1.215,1.822c-0.733,1.79-17.746,44.379,0,87.758c1.185,2.894,3.972,4.643,6.914,4.643
		c0.941,0,1.899-0.182,2.821-0.558c3.817-1.564,5.646-5.923,4.085-9.735c-13.139-32.114-3.969-64.785-0.908-73.905l26.461,22.682
		c0.377,0.322,0.819,0.487,1.235,0.722c0.274,0.156,0.513,0.351,0.802,0.469c0.909,0.373,1.856,0.605,2.817,0.605l0.003-0.001
		l0.003,0.001c0.961,0,1.908-0.231,2.817-0.605c0.289-0.118,0.528-0.314,0.802-0.469c0.416-0.235,0.86-0.4,1.235-0.722
		l26.461-22.682c3.061,9.119,12.231,41.791-0.908,73.905c-1.559,3.812,0.27,8.172,4.085,9.735c0.923,0.375,1.881,0.558,2.821,0.558
		c2.941,0,5.729-1.754,6.914-4.643c17.746-43.38,0.733-85.969,0-87.758c-0.289-0.704-0.756-1.263-1.214-1.822l5.155-4.419
		c0.818,0.638,1.747,1.129,2.775,1.383l58.29,14.437C435.438,258.267,419.984,390.462,415.439,420.218z"/>
	<path style="fill:#F4F6F9;" d="M308.251,345.573H203.748c-4.123,0-7.465,3.342-7.465,7.465s3.342,7.465,7.465,7.465h104.502
		c4.123,0,7.465-3.342,7.465-7.465C315.715,348.915,312.373,345.573,308.251,345.573z"/>
</g>
<g>
</g>
<g>
</g>
<g>
</g>
<g>
</g>
<g>
</g>
<g>
</g>
<g>
</g>
<g>
</g>
<g>
</g>
<g>
</g>
<g>
</g>
<g>
</g>
<g>
</g>
<g>
</g>
<g>
</g>
</svg>
